# xmcd
#
# Track frame offsets: 
#        150
#        13879
#        26605
#        36918
#        53892
#        66391
#        79862
#        92510
#        110510
#        125838
#        142600
#        157528
#        174032
#        190818
#        205825
#        234860
#        248864
#        269482
#        282671
#        316596
#        333993
#
# Disc length: 4794 seconds
#
# Revision: 0
# Processed by: cddbd v1.5.2PL0 Copyright (c) Steve Scherf et al.
# Submitted via: ExactAudioCopy v0.95b3
#
DISCID=1a12b815
DTITLE=The Rolling Stones  - Hot Rocks 1964-1971 (MFSL 2-170)  FLAC
DYEAR=1900
DGENRE=
TTITLE0=Time Is on My Side
TTITLE1=Heart of Stone
TTITLE2=Play With Fire
TTITLE3=(i Can't Get No) Satisfaction
TTITLE4=As Tears Go By
TTITLE5=Get Off My Cloud
TTITLE6=Mother's Little Helper
TTITLE7=19th Nervous Breakdown
TTITLE8=Paint it Black
TTITLE9=Under My Thumb
TTITLE10=Ruby Tuesday
TTITLE11=Let's Spend the Night Together
TTITLE12=Jumpin' Jack Flash
TTITLE13=Street Fighting Man
TTITLE14=Sympathy for the Devil
TTITLE15=Honky Tonk Women
TTITLE16=Gimme Shelter
TTITLE17=Midnight Rambler (live)
TTITLE18=You Can't Always Get What You Want
TTITLE19=Brown Sugar
TTITLE20=Wild Horses
EXTD=
EXTT0=
EXTT1=
EXTT2=
EXTT3=
EXTT4=
EXTT5=
EXTT6=
EXTT7=
EXTT8=
EXTT9=
EXTT10=
EXTT11=
EXTT12=
EXTT13=
EXTT14=
EXTT15=
EXTT16=
EXTT17=
EXTT18=
EXTT19=
EXTT20=
PLAYORDER=
